<svg width="190" height="65" viewBox="0 0 190 65" fill="none" xmlns="http://www.w3.org/2000/svg">
<path d="M6.95 9.5C6.95 6.95 6.6 5.075 5.9 3.875C5.2 2.625 3.8 2 1.7 2H0.2V0.499998H6.95C8.8 0.499998 10.175 0.749998 11.075 1.25C12.025 1.7 12.7 2.55 13.1 3.8C13.5 5.05 13.7 6.95 13.7 9.5V47H40.325V50H6.95V9.5ZM59.6709 50.75C56.2709 50.75 53.3209 49.95 50.8209 48.35C48.3209 46.7 46.4209 44.475 45.1209 41.675C43.8209 38.875 43.1709 35.775 43.1709 32.375C43.1709 28.975 43.8209 25.875 45.1209 23.075C46.4209 20.275 48.3209 18.075 50.8209 16.475C53.3209 14.825 56.2709 14 59.6709 14C63.0709 14 66.0209 14.825 68.5209 16.475C71.0209 18.075 72.9209 20.275 74.2209 23.075C75.5209 25.875 76.1709 28.975 76.1709 32.375C76.1709 35.775 75.5209 38.875 74.2209 41.675C72.9209 44.475 71.0209 46.7 68.5209 48.35C66.0209 49.95 63.0709 50.75 59.6709 50.75ZM59.6709 47.75C61.5209 47.75 63.1459 47.075 64.5459 45.725C65.9959 44.375 67.0959 42.525 67.8459 40.175C68.6459 37.825 69.0459 35.225 69.0459 32.375C69.0459 29.525 68.6459 26.925 67.8459 24.575C67.0959 22.225 65.9959 20.375 64.5459 19.025C63.1459 17.675 61.5209 17 59.6709 17C57.8209 17 56.1709 17.675 54.7209 19.025C53.3209 20.375 52.2209 22.225 51.4209 24.575C50.6709 26.925 50.2959 29.525 50.2959 32.375C50.2959 35.225 50.6709 37.825 51.4209 40.175C52.2209 42.525 53.3209 44.375 54.7209 45.725C56.1709 47.075 57.8209 47.75 59.6709 47.75ZM98.0164 65C92.9664 65 88.9414 64.075 85.9414 62.225C82.9914 60.375 81.5164 57.425 81.5164 53.375C81.5164 51.075 82.2914 49.075 83.8414 47.375C85.3914 45.675 87.3664 44.425 89.7664 43.625C87.7664 42.525 86.7664 41.025 86.7664 39.125C86.7664 38.125 86.9914 37.35 87.4414 36.8C87.8914 36.25 88.5414 35.65 89.3914 35C87.7914 34.2 86.4414 32.95 85.3414 31.25C84.2914 29.55 83.7664 27.55 83.7664 25.25C83.7664 17.75 88.5164 14 98.0164 14H111.891V15.875L107.016 16.625V17C108.566 17.8 109.816 18.925 110.766 20.375C111.766 21.775 112.266 23.4 112.266 25.25C112.266 32.75 107.516 36.5 98.0164 36.5C92.7664 36.5 90.1414 37.375 90.1414 39.125C90.1414 40.875 92.7664 41.75 98.0164 41.75C102.866 41.75 106.816 42.725 109.866 44.675C112.966 46.575 114.516 49.475 114.516 53.375C114.516 57.425 113.016 60.375 110.016 62.225C107.066 64.075 103.066 65 98.0164 65ZM98.0164 33.875C100.266 33.875 102.066 33.2 103.416 31.85C104.816 30.45 105.516 28.25 105.516 25.25C105.516 22.4 104.816 20.25 103.416 18.8C102.066 17.35 100.266 16.625 98.0164 16.625C95.7664 16.625 93.9414 17.325 92.5414 18.725C91.1914 20.075 90.5164 22.25 90.5164 25.25C90.5164 28.25 91.1914 30.45 92.5414 31.85C93.9414 33.2 95.7664 33.875 98.0164 33.875ZM98.0164 62C101.016 62 103.391 61.275 105.141 59.825C106.891 58.425 107.766 56.275 107.766 53.375C107.766 48.375 104.766 45.5 98.7664 44.75L94.6414 44.375C92.5914 45.175 91.0164 46.3 89.9164 47.75C88.8164 49.2 88.2664 51.075 88.2664 53.375C88.2664 56.275 89.1414 58.425 90.8914 59.825C92.6414 61.275 95.0164 62 98.0164 62ZM134.93 65C129.88 65 125.855 64.075 122.855 62.225C119.905 60.375 118.43 57.425 118.43 53.375C118.43 51.075 119.205 49.075 120.755 47.375C122.305 45.675 124.28 44.425 126.68 43.625C124.68 42.525 123.68 41.025 123.68 39.125C123.68 38.125 123.905 37.35 124.355 36.8C124.805 36.25 125.455 35.65 126.305 35C124.705 34.2 123.355 32.95 122.255 31.25C121.205 29.55 120.68 27.55 120.68 25.25C120.68 17.75 125.43 14 134.93 14H148.805V15.875L143.93 16.625V17C145.48 17.8 146.73 18.925 147.68 20.375C148.68 21.775 149.18 23.4 149.18 25.25C149.18 32.75 144.43 36.5 134.93 36.5C129.68 36.5 127.055 37.375 127.055 39.125C127.055 40.875 129.68 41.75 134.93 41.75C139.78 41.75 143.73 42.725 146.78 44.675C149.88 46.575 151.43 49.475 151.43 53.375C151.43 57.425 149.93 60.375 146.93 62.225C143.98 64.075 139.98 65 134.93 65ZM134.93 33.875C137.18 33.875 138.98 33.2 140.33 31.85C141.73 30.45 142.43 28.25 142.43 25.25C142.43 22.4 141.73 20.25 140.33 18.8C138.98 17.35 137.18 16.625 134.93 16.625C132.68 16.625 130.855 17.325 129.455 18.725C128.105 20.075 127.43 22.25 127.43 25.25C127.43 28.25 128.105 30.45 129.455 31.85C130.855 33.2 132.68 33.875 134.93 33.875ZM134.93 62C137.93 62 140.305 61.275 142.055 59.825C143.805 58.425 144.68 56.275 144.68 53.375C144.68 48.375 141.68 45.5 135.68 44.75L131.555 44.375C129.505 45.175 127.93 46.3 126.83 47.75C125.73 49.2 125.18 51.075 125.18 53.375C125.18 56.275 126.055 58.425 127.805 59.825C129.555 61.275 131.93 62 134.93 62ZM161.27 62.75C163.72 62.75 165.72 62.175 167.27 61.025C168.87 59.925 170.245 57.875 171.395 54.875L172.895 50.75L160.895 21.5C159.495 17.9 156.745 15.9 152.645 15.5V14H159.02C163.37 14 166.37 16 168.02 20L176.57 40.775L186.02 14.75H189.77L175.145 54.875C173.695 58.825 172.095 61.5 170.345 62.9C168.595 64.3 166.32 65 163.52 65H161.27V62.75Z" fill="white"/>
</svg>
